# xmcd
#
# Track frame offsets:
#	150
#	20089
#	37965
#	55515
#	74717
#	96293
#	117414
#	135825
#	158741
#	177791
#	194765
#	214710
#
# Disc length: 3094 seconds
#
# Revision: 0
# Processed by: cddbd v1.5.2PL0 Copyright (c) Steve Scherf et al.
# Submitted via: EZCDAudioConverter 3.1.7.1
#
DISCID=a70c140c
DTITLE=รวมศิลปิน - Reason of Love Vol.2
DYEAR=2015
DGENRE=
TTITLE0=Cocktail - เธอ (New Version)
TTITLE1=วิโอเลต วอเทียร์ - อยากรู้หัวใจตัวเอง
TTITLE2=S.D.F. - เกิดมาเพื่อรักเธอ (New Version)
TTITLE3=ใหม่ เจริญปุระ and โตโน่ ภาคิน - ไม่ม่สิ่งไหน
TTITLE4=ฟิล์ม บงกช - สิ่งที่มันกำลังเกิด
TTITLE5=Lowfat and ฟิล์ม บงกช and รุจ ศุภรุจ - กะทันหัน (New Version)
TTITLE6=โบ สุนิตา - ให้ความคิดถึงได้ทำงาน
TTITLE7=เบิร์ด ธงไชย and นิว-จิ๋ว - เธอยัง...
TTITLE8=Mr.Lazy - ดีอย่างไร (feat.ที Jetset'er)
TTITLE9=ลุลา - ฝากไว้ในใจเธอ
TTITLE10=มาตัง ระดับดาว - อัศจรรย์ของหัวใจ
TTITLE11=มุก ณัฐณิชา - เชื่อหัวใจตัวเอง
EXTD=
EXTT0=
EXTT1=
EXTT2=
EXTT3=
EXTT4=
EXTT5=
EXTT6=
EXTT7=
EXTT8=
EXTT9=
EXTT10=
EXTT11=
PLAYORDER=
